<svg xmlns="http://www.w3.org/2000/svg" width="65" height="65" viewBox="0 0 65 65">
    <g>
        <path fill="none" d="M0 0H65V65H0z" transform="translate(-9997 3972) translate(9997 -3972)"/>
        <path stroke="#000" stroke-width="0.2px" d="M26.812 2.467A2.47 2.47 0 0 0 24.343 0a4.815 4.815 0 0 0-3.428 1.42l-4.39 4.39L5.6 3.24A5.176 5.176 0 0 0 .132 5.4a.786.786 0 0 0 .281 1.125l10.008 5.389-4.913 4.913H2.467A2.47 2.47 0 0 0 0 19.3a.785.785 0 0 0 .381.673l4.039 2.419 2.423 4.038a.786.786 0 0 0 .674.381 2.468 2.468 0 0 0 2.468-2.468V21.3l4.915-4.91 5.386 10.01a.785.785 0 0 0 1.128.281 5.176 5.176 0 0 0 2.158-5.469L21 10.287l4.39-4.39a4.817 4.817 0 0 0 1.422-3.43zM2.014 5.6a3.6 3.6 0 0 1 3.227-.834l9.978 2.348-3.638 3.638zm20.029 15.971a3.6 3.6 0 0 1-.834 3.227l-5.151-9.567 3.642-3.638zm2.238-16.786L8.644 20.422a.785.785 0 0 0-.23.556v3.365a.9.9 0 0 1-.506.808l-2.242-3.736a.784.784 0 0 0-.269-.269L1.661 18.9a.9.9 0 0 1 .807-.506h3.366a.786.786 0 0 0 .555-.23L22.026 2.531a3.255 3.255 0 0 1 2.317-.96.9.9 0 0 1 .9.9 3.256 3.256 0 0 1-.962 2.314zm0 0" transform="translate(-9997 3972) translate(10016.094 -3952.906)"/>
    </g>
</svg>
