<svg xmlns="http://www.w3.org/2000/svg" width="65" height="65" viewBox="0 0 65 65">
    <g>
        <path fill="none" d="M0 0H65V65H0z" transform="translate(-9927 3972) translate(9927 -3972)"/>
        <path d="M44.671 150.394l-.582-2.531a1.059 1.059 0 0 0-.9-.81l-5.342-.676c-1.7-1.21-4.258-3.04-4.5-3.24a3.637 3.637 0 0 0-2.347-.852H14.2a10.827 10.827 0 0 0-6.061 1.852l-3.025 2.044a1.065 1.065 0 0 0-.18.153H3.552A2.836 2.836 0 0 0 .883 148.2l-.71 1.977a2.939 2.939 0 0 0 .041 2.1 3.29 3.29 0 0 0 3.069 2.058h1.54a3.422 3.422 0 0 0 6.485 0h22.474a3.422 3.422 0 0 0 6.485 0h1.183a3.3 3.3 0 0 0 3.127-2.212 3.127 3.127 0 0 0 .094-1.729zm-2.1 1.042a1.18 1.18 0 0 1-1.117.79h-1.186a3.422 3.422 0 0 0-6.485 0H11.309a3.422 3.422 0 0 0-6.485 0h-1.54a1.175 1.175 0 0 1-1.1-.735.852.852 0 0 1-.012-.608l.71-1.977a.708.708 0 0 1 .666-.466h33.829l4.8.608.417 1.814a1.042 1.042 0 0 1-.026.574zm-4.255 1.843A1.288 1.288 0 1 1 37.025 152a1.283 1.283 0 0 1 1.288 1.279zm-28.959 0A1.288 1.288 0 1 1 8.067 152a1.283 1.283 0 0 1 1.287 1.279zm10.37-8.889v1.944h-4.41v-1.944zm6.535 0v1.944h-4.41v-1.944zm2.125 1.944v-1.944H31a1.5 1.5 0 0 1 .963.351c.16.135 1.13.836 2.187 1.594h-5.766zm-15.2-1.884v1.884H8.663l.678-.458a8.666 8.666 0 0 1 3.848-1.426z" transform="translate(-9927 3972) translate(9937.123 -4088.972)"/>
    </g>
</svg>
