<svg xmlns="http://www.w3.org/2000/svg" width="65" height="65" viewBox="0 0 65 65">
    <g>
        <path fill="none" d="M0 0H65V65H0z" transform="translate(-10062 3972) translate(10062 -3972)"/>
        <path stroke="#000" stroke-width="0.2px" d="M.6 4.809l4.738-.7a23.677 23.677 0 0 1 2.683-1.462A22.913 22.913 0 0 1 17.739.492h.823a23.167 23.167 0 0 1 11.321 2.973l2.391 1.343a16.115 16.115 0 0 1 7.976 2.227 3.3 3.3 0 0 1 1.6 2.84v4.265a.708.708 0 0 1-.7.718h-2.34a4.14 4.14 0 0 1-5.31 2.633 4.233 4.233 0 0 1-2.556-2.632H12.305a4.14 4.14 0 0 1-5.314 2.632 4.234 4.234 0 0 1-2.556-2.632h-.25a.682.682 0 0 1-.259-.051l-2.259-.934A2.717 2.717 0 0 1 0 11.339V5.52a.712.712 0 0 1 .6-.711zM32.141 14a2.793 2.793 0 0 0 3.292 2.24 2.872 2.872 0 0 0 2.175-3.391 2.794 2.794 0 0 0-3.292-2.24 2.854 2.854 0 0 0-2.231 2.816 2.959 2.959 0 0 0 .056.575zm-12.611-.578h11.16a4.187 4.187 0 1 1 8.37 0h1.395V9.875a1.848 1.848 0 0 0-.9-1.592 14.743 14.743 0 0 0-7.472-2.044H19.53zm0-8.62h9.819l-.135-.076A21.81 21.81 0 0 0 19.53 1.96zm-1.395-2.873h-.395a21.514 21.514 0 0 0-8.207 1.619L10.751 4.8h7.384zM5.636 14a2.793 2.793 0 0 0 3.292 2.24 2.872 2.872 0 0 0 2.172-3.394 2.793 2.793 0 0 0-3.292-2.24 2.854 2.854 0 0 0-2.228 2.816 2.959 2.959 0 0 0 .056.578zM1.395 6.957h2.092v1.437H1.395v2.945a1.286 1.286 0 0 0 .79 1.2l2 .827c0-.066.008-.132.012-.2s.006-.144.012-.215.021-.144.032-.215.02-.144.033-.209.034-.138.053-.206.032-.137.053-.2l.07-.2c.024-.069.045-.133.07-.2s.057-.123.087-.184.058-.128.091-.19.07-.114.1-.172.07-.123.109-.182.077-.106.115-.159.082-.116.126-.171.086-.1.13-.144.091-.106.139-.156.1-.09.144-.134.1-.1.153-.144.107-.082.16-.123.106-.085.162-.123.119-.072.179-.112.109-.072.165-.1l.191-.095c.064-.032.114-.06.174-.085s.14-.053.209-.079.115-.046.175-.065c.079-.025.161-.043.242-.064.053-.013.1-.03.158-.042.086-.018.174-.028.261-.041.052-.007.1-.019.153-.024a4.129 4.129 0 0 1 .425-.022 4.253 4.253 0 0 1 4.185 4.31h5.582V6.239h-7.673a.686.686 0 0 1-.493-.21L8.161 4.165a22.174 22.174 0 0 0-2.212 1.246.687.687 0 0 1-.27.1l-4.284.63zm0 0" transform="translate(-10062 3972) translate(10073.574 -3947.988)"/>
    </g>
</svg>
